<?plantuml 1.2026.2?><svg xmlns="http://www.w3.org/2000/svg" xmlns:xlink="http://www.w3.org/1999/xlink" contentStyleType="text/css" data-diagram-type="DESCRIPTION" height="833px" preserveAspectRatio="none" style="width:254px;height:833px;background:#FFFFFF;" version="1.1" viewBox="0 0 254 833" width="254px" zoomAndPan="magnify"><defs/><g><!--cluster Data Layer--><g class="cluster" data-qualified-name="Data Layer" data-source-line="8" id="ent0002"><rect fill="none" height="103.2" rx="2.5" ry="2.5" style="stroke:#181818;stroke-width:1;" width="126" x="51" y="7"/><text fill="#000000" font-family="Arial" font-size="14" font-weight="bold" lengthAdjust="spacing" textLength="71.5928" x="78.2036" y="22.1318">Data Layer</text></g><!--cluster Processing Layer--><g class="cluster" data-qualified-name="Processing Layer" data-source-line="12" id="ent0004"><rect fill="none" height="327.59" rx="2.5" ry="2.5" style="stroke:#181818;stroke-width:1;" width="210" x="9" y="134.2"/><text fill="#000000" font-family="Arial" font-size="14" font-weight="bold" lengthAdjust="spacing" textLength="116.7236" x="55.6382" y="149.3318">Processing Layer</text></g><!--cluster Serving Layer--><g class="cluster" data-qualified-name="Serving Layer" data-source-line="18" id="ent0008"><rect fill="none" height="103.19" rx="2.5" ry="2.5" style="stroke:#181818;stroke-width:1;" width="134" x="47" y="485.79"/><text fill="#000000" font-family="Arial" font-size="14" font-weight="bold" lengthAdjust="spacing" textLength="92.5996" x="67.7002" y="500.9218">Serving Layer</text></g><!--cluster AI Layer--><g class="cluster" data-qualified-name="AI Layer" data-source-line="22" id="ent0010"><rect fill="none" height="103.2" rx="2.5" ry="2.5" style="stroke:#181818;stroke-width:1;" width="148" x="40" y="612.98"/><text fill="#000000" font-family="Arial" font-size="14" font-weight="bold" lengthAdjust="spacing" textLength="55.248" x="86.376" y="628.1118">AI Layer</text></g><!--cluster Output--><g class="cluster" data-qualified-name="Output" data-source-line="26" id="ent0012"><rect fill="none" height="87.1" rx="2.5" ry="2.5" style="stroke:#181818;stroke-width:1;" width="241" x="7" y="740.18"/><text fill="#000000" font-family="Arial" font-size="14" font-weight="bold" lengthAdjust="spacing" textLength="45.8691" x="104.5654" y="755.3118">Output</text></g><!--entity raw--><g class="entity" data-qualified-name="Data Layer.raw" data-source-line="9" id="ent0003"><rect fill="#F1F1F1" height="52.1973" rx="2.5" ry="2.5" style="stroke:#181818;stroke-width:0.5;" width="94.6895" x="66.66" y="42"/><text fill="#000000" font-family="Arial" font-size="14" lengthAdjust="spacing" textLength="61.4688" x="76.66" y="65.1318">Raw Data</text><text fill="#000000" font-family="Arial" font-size="14" lengthAdjust="spacing" textLength="74.6895" x="76.66" y="81.2305">CSV / Excel</text></g><!--entity etl--><g class="entity" data-qualified-name="Processing Layer.etl" data-source-line="13" id="ent0005"><rect fill="#F1F1F1" height="52.1973" rx="2.5" ry="2.5" style="stroke:#181818;stroke-width:0.5;" width="178.7578" x="24.62" y="169.2"/><text fill="#000000" font-family="Arial" font-size="14" lengthAdjust="spacing" textLength="79.3789" x="34.62" y="192.3318">ETL Pipeline</text><text fill="#000000" font-family="Arial" font-size="14" lengthAdjust="spacing" textLength="158.7578" x="34.62" y="208.4305">Cleaning / Anonymization</text></g><!--entity processed--><g class="entity" data-qualified-name="Processing Layer.processed" data-source-line="14" id="ent0006"><rect fill="#F1F1F1" height="52.1973" rx="2.5" ry="2.5" style="stroke:#181818;stroke-width:0.5;" width="119.6064" x="54.2" y="281.39"/><text fill="#000000" font-family="Arial" font-size="14" lengthAdjust="spacing" textLength="99.6064" x="64.2" y="304.5218">Processed Data</text><text fill="#000000" font-family="Arial" font-size="14" lengthAdjust="spacing" textLength="49.0342" x="64.2" y="320.6205">Parquet</text></g><!--entity marts--><g class="entity" data-qualified-name="Processing Layer.marts" data-source-line="15" id="ent0007"><rect fill="#F1F1F1" height="52.1973" rx="2.5" ry="2.5" style="stroke:#181818;stroke-width:0.5;" width="100.9238" x="63.54" y="393.59"/><text fill="#000000" font-family="Arial" font-size="14" lengthAdjust="spacing" textLength="68.4619" x="73.54" y="416.7218">Data Marts</text><text fill="#000000" font-family="Arial" font-size="14" lengthAdjust="spacing" textLength="80.9238" x="73.54" y="432.8205">Star Schema</text></g><!--entity api--><g class="entity" data-qualified-name="Serving Layer.api" data-source-line="19" id="ent0009"><rect fill="#F1F1F1" height="52.1973" rx="2.5" ry="2.5" style="stroke:#181818;stroke-width:0.5;" width="102.4756" x="62.76" y="520.79"/><text fill="#000000" font-family="Arial" font-size="14" lengthAdjust="spacing" textLength="82.4756" x="72.76" y="543.9218">Analytics API</text><text fill="#000000" font-family="Arial" font-size="14" lengthAdjust="spacing" textLength="49.793" x="72.76" y="560.0205">FastAPI</text></g><!--entity llm--><g class="entity" data-qualified-name="AI Layer.llm" data-source-line="23" id="ent0011"><rect fill="#F1F1F1" height="52.1973" rx="2.5" ry="2.5" style="stroke:#181818;stroke-width:0.5;" width="116.4961" x="55.75" y="647.98"/><text fill="#000000" font-family="Arial" font-size="14" lengthAdjust="spacing" textLength="67.71" x="65.75" y="671.1118">LLM Agent</text><text fill="#000000" font-family="Arial" font-size="14" lengthAdjust="spacing" textLength="96.4961" x="65.75" y="687.2105">Bedrock / Local</text></g><!--entity insights--><g class="entity" data-qualified-name="Output.insights" data-source-line="27" id="ent0013"><rect fill="#F1F1F1" height="36.0986" rx="2.5" ry="2.5" style="stroke:#181818;stroke-width:0.5;" width="68.248" x="22.88" y="775.18"/><text fill="#000000" font-family="Arial" font-size="14" lengthAdjust="spacing" textLength="48.248" x="32.88" y="798.3118">Insights</text></g><!--entity viz--><g class="entity" data-qualified-name="Output.viz" data-source-line="28" id="ent0014"><rect fill="#F1F1F1" height="36.0986" rx="2.5" ry="2.5" style="stroke:#181818;stroke-width:0.5;" width="105.5996" x="126.2" y="775.18"/><text fill="#000000" font-family="Arial" font-size="14" lengthAdjust="spacing" textLength="85.5996" x="136.2" y="798.3118">Visualizations</text></g><!--link raw to etl--><g class="link" data-entity-1="ent0003" data-entity-2="ent0005" data-link-type="dependency" data-source-line="31" id="lnk15"><path d="M114,94.43 C114,116.15 114,141.29 114,163" fill="none" id="raw-to-etl" style="stroke:#181818;stroke-width:1;"/><polygon fill="#181818" points="114,169,118,160,114,164,110,160,114,169" style="stroke:#181818;stroke-width:1;"/></g><!--link etl to processed--><g class="link" data-entity-1="ent0005" data-entity-2="ent0006" data-link-type="dependency" data-source-line="32" id="lnk16"><path d="M114,221.85 C114,239.65 114,257.3 114,275.07" fill="none" id="etl-to-processed" style="stroke:#181818;stroke-width:1;"/><polygon fill="#181818" points="114,281.07,118,272.07,114,276.07,110,272.07,114,281.07" style="stroke:#181818;stroke-width:1;"/></g><!--link processed to marts--><g class="link" data-entity-1="ent0006" data-entity-2="ent0007" data-link-type="dependency" data-source-line="33" id="lnk17"><path d="M114,334.05 C114,351.85 114,369.5 114,387.27" fill="none" id="processed-to-marts" style="stroke:#181818;stroke-width:1;"/><polygon fill="#181818" points="114,393.27,118,384.27,114,388.27,110,384.27,114,393.27" style="stroke:#181818;stroke-width:1;"/></g><!--link marts to api--><g class="link" data-entity-1="ent0007" data-entity-2="ent0009" data-link-type="dependency" data-source-line="34" id="lnk18"><path d="M114,446.02 C114,467.74 114,492.88 114,514.59" fill="none" id="marts-to-api" style="stroke:#181818;stroke-width:1;"/><polygon fill="#181818" points="114,520.59,118,511.59,114,515.59,110,511.59,114,520.59" style="stroke:#181818;stroke-width:1;"/></g><!--link api to llm--><g class="link" data-entity-1="ent0009" data-entity-2="ent0011" data-link-type="dependency" data-source-line="35" id="lnk19"><path d="M114,573.22 C114,594.94 114,620.07 114,641.78" fill="none" id="api-to-llm" style="stroke:#181818;stroke-width:1;"/><polygon fill="#181818" points="114,647.78,118,638.78,114,642.78,110,638.78,114,647.78" style="stroke:#181818;stroke-width:1;"/></g><!--link llm to insights--><g class="link" data-entity-1="ent0011" data-entity-2="ent0013" data-link-type="dependency" data-source-line="36" id="lnk20"><path d="M101.63,700.5 C90.7,722.98 77.6538,749.7741 68.0938,769.4341" fill="none" id="llm-to-insights" style="stroke:#181818;stroke-width:1;"/><polygon fill="#181818" points="65.47,774.83,73.003,768.4854,67.6565,770.3334,65.8085,764.987,65.47,774.83" style="stroke:#181818;stroke-width:1;"/></g><!--link llm to viz--><g class="link" data-entity-1="ent0011" data-entity-2="ent0014" data-link-type="dependency" data-source-line="37" id="lnk21"><path d="M128.1,700.5 C140.57,722.98 155.5186,749.9237 166.4286,769.5837" fill="none" id="llm-to-viz" style="stroke:#181818;stroke-width:1;"/><polygon fill="#181818" points="169.34,774.83,168.4705,765.0196,166.9139,770.4581,161.4754,768.9014,169.34,774.83" style="stroke:#181818;stroke-width:1;"/></g><?plantuml-src TL71JiCm3BttAopkq_u0gOnDcjJ1HD4kZ8DflIvQwfJ4NUaG_qwQTcK3KScLOx_txBouW-8ABPRmXjcXiARcV6QqiT3ibL3andvEEworB0pB0vO4iLMeB_gPAIl3n99AgmaiPO9Sw4k9oe_0Wlu7k3tcfb5Sm0wreoWQ671pZuAGO4ls1ZuZyD_B4pRGbRSyIpSmXVb7HleLq8759lgw8A-joSYvJlTQOlwSm5fLf1MJbz64t86c4BFXjbGd56KuQ9BedZE8KJuCNwDzhqa2g3htUcXOUeLMt9PJGGjfjgSI0xJiobTRfcIFVrUC6NKhAdCGhvTRNg0JdmG9hDILGBpynKsI5SI5Vv8jtr7kTplugoKcmzuchSih_cCjLIqZUybE5Njn0Qk6Gz_QA5UZ7kpf0KTrwiIyzJ2Pt0QxV8JynvKn2_NUWl0Fv-u-FaBUxUOZvEFiSw6RzGq0?></g></svg>