<?plantuml 1.2026.2?><svg xmlns="http://www.w3.org/2000/svg" xmlns:xlink="http://www.w3.org/1999/xlink" contentStyleType="text/css" data-diagram-type="CLASS" height="760px" preserveAspectRatio="none" style="width:1931px;height:760px;background:#FFFFFF;" version="1.1" viewBox="0 0 1931 760" width="1931px" zoomAndPan="magnify"><defs/><g><!--class dim_date--><g class="entity" data-qualified-name="dim_date" data-source-line="13" id="ent0002"><rect fill="#F1F1F1" height="225.085" rx="2.5" ry="2.5" style="stroke:#181818;stroke-width:0.5;" width="194.8545" x="707.74" y="7"/><ellipse cx="772.1209" cy="23" fill="#ADD1B2" rx="11" ry="11" style="stroke:#181818;stroke-width:1;"/><path d="M775.7351,29.5 L768.0154,29.5 L768.0154,17.1069 L775.7351,17.1069 L775.7351,19.2651 L770.4641,19.2651 L770.4641,21.938 L775.2371,21.938 L775.2371,24.0962 L770.4641,24.0962 L770.4641,27.3418 L775.7351,27.3418 Z " fill="#000000"/><text fill="#000000" font-family="Arial" font-size="14" lengthAdjust="spacing" textLength="57.5928" x="792.6209" y="28.0825">dim_date</text><line style="stroke:#181818;stroke-width:0.5;" x1="708.74" x2="901.5945" y1="39" y2="39"/><g data-visibility-modifier="IE_MANDATORY"><ellipse cx="718.74" cy="52.5493" fill="#000000" rx="3" ry="3" style="stroke:#000000;stroke-width:1;"/></g><text fill="#000000" font-family="Arial" font-size="14" lengthAdjust="spacing" textLength="168.8545" x="727.74" y="56.1318">date_key : INTEGER &#171;PK&#187;</text><line style="stroke:#181818;stroke-width:1;" x1="708.74" x2="901.5945" y1="63.0986" y2="63.0986"/><text fill="#000000" font-family="Arial" font-size="14" lengthAdjust="spacing" textLength="76.2549" x="713.74" y="80.2305">date : DATE</text><text fill="#000000" font-family="Arial" font-size="14" lengthAdjust="spacing" textLength="101.1309" x="713.74" y="96.3291">year : INTEGER</text><text fill="#000000" font-family="Arial" font-size="14" lengthAdjust="spacing" textLength="112.8066" x="713.74" y="112.4277">month : INTEGER</text><text fill="#000000" font-family="Arial" font-size="14" lengthAdjust="spacing" textLength="161.8408" x="713.74" y="128.5264">month_name : VARCHAR</text><text fill="#000000" font-family="Arial" font-size="14" lengthAdjust="spacing" textLength="96.4688" x="713.74" y="144.625">day : INTEGER</text><text fill="#000000" font-family="Arial" font-size="14" lengthAdjust="spacing" textLength="118.2549" x="713.74" y="160.7236">quarter : INTEGER</text><text fill="#000000" font-family="Arial" font-size="14" lengthAdjust="spacing" textLength="136.9375" x="713.74" y="176.8223">week_day : INTEGER</text><text fill="#000000" font-family="Arial" font-size="14" lengthAdjust="spacing" textLength="178.1855" x="713.74" y="192.9209">weekday_name : VARCHAR</text><text fill="#000000" font-family="Arial" font-size="14" lengthAdjust="spacing" textLength="153.2959" x="713.74" y="209.0195">is_weekend : BOOLEAN</text><text fill="#000000" font-family="Arial" font-size="14" lengthAdjust="spacing" textLength="125.2686" x="713.74" y="225.1182">season : VARCHAR</text></g><!--class dim_time--><g class="entity" data-qualified-name="dim_time" data-source-line="28" id="ent0003"><rect fill="#F1F1F1" height="128.4932" rx="2.5" ry="2.5" style="stroke:#181818;stroke-width:0.5;" width="194.0547" x="937.14" y="55.3"/><ellipse cx="1001.5209" cy="71.3" fill="#ADD1B2" rx="11" ry="11" style="stroke:#181818;stroke-width:1;"/><path d="M1005.1351,77.8 L997.4154,77.8 L997.4154,65.4069 L1005.1351,65.4069 L1005.1351,67.5651 L999.8641,67.5651 L999.8641,70.238 L1004.6371,70.238 L1004.6371,72.3962 L999.8641,72.3962 L999.8641,75.6418 L1005.1351,75.6418 Z " fill="#000000"/><text fill="#000000" font-family="Arial" font-size="14" lengthAdjust="spacing" textLength="56.793" x="1022.0209" y="76.3825">dim_time</text><line style="stroke:#181818;stroke-width:0.5;" x1="938.14" x2="1130.1947" y1="87.3" y2="87.3"/><g data-visibility-modifier="IE_MANDATORY"><ellipse cx="948.14" cy="100.8493" fill="#000000" rx="3" ry="3" style="stroke:#000000;stroke-width:1;"/></g><text fill="#000000" font-family="Arial" font-size="14" lengthAdjust="spacing" textLength="168.0547" x="957.14" y="104.4318">time_key : INTEGER &#171;PK&#187;</text><line style="stroke:#181818;stroke-width:1;" x1="938.14" x2="1130.1947" y1="111.3986" y2="111.3986"/><text fill="#000000" font-family="Arial" font-size="14" lengthAdjust="spacing" textLength="101.917" x="943.14" y="128.5305">hour : INTEGER</text><text fill="#000000" font-family="Arial" font-size="14" lengthAdjust="spacing" textLength="127.6133" x="943.14" y="144.6291">is_night : BOOLEAN</text><text fill="#000000" font-family="Arial" font-size="14" lengthAdjust="spacing" textLength="149.3994" x="943.14" y="160.7277">day_period : VARCHAR</text><text fill="#000000" font-family="Arial" font-size="14" lengthAdjust="spacing" textLength="126.8066" x="943.14" y="176.8264">am_pm : VARCHAR</text></g><!--class dim_flights--><g class="entity" data-qualified-name="dim_flights" data-source-line="37" id="ent0004"><rect fill="#F1F1F1" height="176.7891" rx="2.5" ry="2.5" style="stroke:#181818;stroke-width:0.5;" width="282.0195" x="779.16" y="292.09"/><ellipse cx="882.4613" cy="308.09" fill="#ADD1B2" rx="11" ry="11" style="stroke:#181818;stroke-width:1;"/><path d="M886.0755,314.59 L878.3558,314.59 L878.3558,302.1969 L886.0755,302.1969 L886.0755,304.3551 L880.8045,304.3551 L880.8045,307.028 L885.5775,307.028 L885.5775,309.1862 L880.8045,309.1862 L880.8045,312.4318 L886.0755,312.4318 Z " fill="#000000"/><text fill="#000000" font-family="Arial" font-size="14" lengthAdjust="spacing" textLength="66.917" x="902.9613" y="313.1725">dim_flights</text><line style="stroke:#181818;stroke-width:0.5;" x1="780.16" x2="1060.1795" y1="324.09" y2="324.09"/><g data-visibility-modifier="IE_MANDATORY"><ellipse cx="790.16" cy="337.6393" fill="#000000" rx="3" ry="3" style="stroke:#000000;stroke-width:1;"/></g><text fill="#000000" font-family="Arial" font-size="14" lengthAdjust="spacing" textLength="202.3027" x="799.16" y="341.2218">flight_key : VARCHAR(32) &#171;PK&#187;</text><line style="stroke:#181818;stroke-width:1;" x1="780.16" x2="1060.1795" y1="348.1886" y2="348.1886"/><text fill="#000000" font-family="Arial" font-size="14" lengthAdjust="spacing" textLength="270.0195" x="785.16" y="365.3205">flight_key_with_date : VARCHAR(32) &#171;AK&#187;</text><text fill="#000000" font-family="Arial" font-size="14" lengthAdjust="spacing" textLength="164.9512" x="785.16" y="381.4191">flight_number : VARCHAR</text><text fill="#000000" font-family="Arial" font-size="14" lengthAdjust="spacing" textLength="114.3652" x="785.16" y="397.5177">origin : VARCHAR</text><text fill="#000000" font-family="Arial" font-size="14" lengthAdjust="spacing" textLength="147.8408" x="785.16" y="413.6164">destination : VARCHAR</text><text fill="#000000" font-family="Arial" font-size="14" lengthAdjust="spacing" textLength="138.4961" x="785.16" y="429.715">date : INTEGER &#171;FK&#187;</text><text fill="#000000" font-family="Arial" font-size="14" lengthAdjust="spacing" textLength="226.4473" x="785.16" y="445.8136">hour_of_departure : INTEGER &#171;FK&#187;</text><text fill="#000000" font-family="Arial" font-size="14" lengthAdjust="spacing" textLength="71.5586" x="785.16" y="461.9123">time : TIME</text></g><!--class dim_products--><g class="entity" data-qualified-name="dim_products" data-source-line="49" id="ent0005"><rect fill="#F1F1F1" height="160.6904" rx="2.5" ry="2.5" style="stroke:#181818;stroke-width:0.5;" width="245.4268" x="347.46" y="300.14"/><ellipse cx="423.9029" cy="316.14" fill="#ADD1B2" rx="11" ry="11" style="stroke:#181818;stroke-width:1;"/><path d="M427.5171,322.64 L419.7974,322.64 L419.7974,310.2469 L427.5171,310.2469 L427.5171,312.4051 L422.2461,312.4051 L422.2461,315.078 L427.0191,315.078 L427.0191,317.2362 L422.2461,317.2362 L422.2461,320.4818 L427.5171,320.4818 Z " fill="#000000"/><text fill="#000000" font-family="Arial" font-size="14" lengthAdjust="spacing" textLength="84.041" x="444.4029" y="321.2225">dim_products</text><line style="stroke:#181818;stroke-width:0.5;" x1="348.46" x2="591.8868" y1="332.14" y2="332.14"/><g data-visibility-modifier="IE_MANDATORY"><ellipse cx="358.46" cy="345.6893" fill="#000000" rx="3" ry="3" style="stroke:#000000;stroke-width:1;"/></g><text fill="#000000" font-family="Arial" font-size="14" lengthAdjust="spacing" textLength="219.4268" x="367.46" y="349.2718">product_key : VARCHAR(32) &#171;PK&#187;</text><line style="stroke:#181818;stroke-width:1;" x1="348.46" x2="591.8868" y1="356.2386" y2="356.2386"/><text fill="#000000" font-family="Arial" font-size="14" lengthAdjust="spacing" textLength="125.2549" x="353.46" y="373.3705">item_id : VARCHAR</text><text fill="#000000" font-family="Arial" font-size="14" lengthAdjust="spacing" textLength="117.4756" x="353.46" y="389.4691">status : VARCHAR</text><text fill="#000000" font-family="Arial" font-size="14" lengthAdjust="spacing" textLength="133.8203" x="353.46" y="405.5677">category : VARCHAR</text><text fill="#000000" font-family="Arial" font-size="14" lengthAdjust="spacing" textLength="124.5029" x="353.46" y="421.6664">is_food : BOOLEAN</text><text fill="#000000" font-family="Arial" font-size="14" lengthAdjust="spacing" textLength="140.8203" x="353.46" y="437.765">item_type : VARCHAR</text><text fill="#000000" font-family="Arial" font-size="14" lengthAdjust="spacing" textLength="107.3447" x="353.46" y="453.8636">price : NUMERIC</text></g><!--class dim_sessions--><g class="entity" data-qualified-name="dim_sessions" data-source-line="60" id="ent0006"><rect fill="#F1F1F1" height="80.1973" rx="2.5" ry="2.5" style="stroke:#181818;stroke-width:0.5;" width="275.7783" x="1206.28" y="340.38"/><ellipse cx="1297.5124" cy="356.38" fill="#ADD1B2" rx="11" ry="11" style="stroke:#181818;stroke-width:1;"/><path d="M1301.1267,362.88 L1293.407,362.88 L1293.407,350.4869 L1301.1267,350.4869 L1301.1267,352.6451 L1295.8557,352.6451 L1295.8557,355.318 L1300.6286,355.318 L1300.6286,357.4762 L1295.8557,357.4762 L1295.8557,360.7218 L1301.1267,360.7218 Z " fill="#000000"/><text fill="#000000" font-family="Arial" font-size="14" lengthAdjust="spacing" textLength="84.8135" x="1318.0124" y="361.4625">dim_sessions</text><line style="stroke:#181818;stroke-width:0.5;" x1="1207.28" x2="1481.0583" y1="372.38" y2="372.38"/><g data-visibility-modifier="IE_MANDATORY"><ellipse cx="1217.28" cy="385.9293" fill="#000000" rx="3" ry="3" style="stroke:#000000;stroke-width:1;"/></g><text fill="#000000" font-family="Arial" font-size="14" lengthAdjust="spacing" textLength="249.7783" x="1226.28" y="389.5118">sales_session_id : VARCHAR(32) &#171;PK&#187;</text><line style="stroke:#181818;stroke-width:1;" x1="1207.28" x2="1481.0583" y1="396.4786" y2="396.4786"/><text fill="#000000" font-family="Arial" font-size="14" lengthAdjust="spacing" textLength="177.4199" x="1212.28" y="413.6105">is_offline_mode : BOOLEAN</text></g><!--class dim_card--><g class="entity" data-qualified-name="dim_card" data-source-line="66" id="ent0007"><rect fill="#F1F1F1" height="160.6904" rx="2.5" ry="2.5" style="stroke:#181818;stroke-width:0.5;" width="268.7715" x="1625.79" y="300.14"/><ellipse cx="1727.1362" cy="316.14" fill="#ADD1B2" rx="11" ry="11" style="stroke:#181818;stroke-width:1;"/><path d="M1730.7504,322.64 L1723.0307,322.64 L1723.0307,310.2469 L1730.7504,310.2469 L1730.7504,312.4051 L1725.4795,312.4051 L1725.4795,315.078 L1730.2524,315.078 L1730.2524,317.2362 L1725.4795,317.2362 L1725.4795,320.4818 L1730.7504,320.4818 Z " fill="#000000"/><text fill="#000000" font-family="Arial" font-size="14" lengthAdjust="spacing" textLength="57.5791" x="1747.6362" y="321.2225">dim_card</text><line style="stroke:#181818;stroke-width:0.5;" x1="1626.79" x2="1893.5615" y1="332.14" y2="332.14"/><g data-visibility-modifier="IE_MANDATORY"><ellipse cx="1636.79" cy="345.6893" fill="#000000" rx="3" ry="3" style="stroke:#000000;stroke-width:1;"/></g><text fill="#000000" font-family="Arial" font-size="14" lengthAdjust="spacing" textLength="242.7715" x="1645.79" y="349.2718">card_number_prefix : VARCHAR &#171;PK&#187;</text><line style="stroke:#181818;stroke-width:1;" x1="1626.79" x2="1893.5615" y1="356.2386" y2="356.2386"/><text fill="#000000" font-family="Arial" font-size="14" lengthAdjust="spacing" textLength="191.4131" x="1631.79" y="373.3705">source_card_type : VARCHAR</text><text fill="#000000" font-family="Arial" font-size="14" lengthAdjust="spacing" textLength="150.9512" x="1631.79" y="389.4691">card_brand : VARCHAR</text><text fill="#000000" font-family="Arial" font-size="14" lengthAdjust="spacing" textLength="208.5371" x="1631.79" y="405.5677">reference_card_type : VARCHAR</text><text fill="#000000" font-family="Arial" font-size="14" lengthAdjust="spacing" textLength="168.8408" x="1631.79" y="421.6664">card_category : VARCHAR</text><text fill="#000000" font-family="Arial" font-size="14" lengthAdjust="spacing" textLength="152.4893" x="1631.79" y="437.765">card_issuer : VARCHAR</text><text fill="#000000" font-family="Arial" font-size="14" lengthAdjust="spacing" textLength="171.165" x="1631.79" y="453.8636">issuer_country : VARCHAR</text></g><!--class bridge_flight_load--><g class="entity" data-qualified-name="bridge_flight_load" data-source-line="78" id="ent0008"><rect fill="#F1F1F1" height="96.2959" rx="2.5" ry="2.5" style="stroke:#181818;stroke-width:0.5;" width="250.082" x="635.13" y="593.27"/><ellipse cx="700.6559" cy="609.27" fill="#ADD1B2" rx="11" ry="11" style="stroke:#181818;stroke-width:1;"/><path d="M704.2701,615.77 L696.5504,615.77 L696.5504,603.3769 L704.2701,603.3769 L704.2701,605.5351 L698.9991,605.5351 L698.9991,608.208 L703.7721,608.208 L703.7721,610.3662 L698.9991,610.3662 L698.9991,613.6118 L704.2701,613.6118 Z " fill="#000000"/><text fill="#000000" font-family="Arial" font-size="14" lengthAdjust="spacing" textLength="110.5303" x="721.1559" y="614.3525">bridge_flight_load</text><line style="stroke:#181818;stroke-width:0.5;" x1="636.13" x2="884.212" y1="625.27" y2="625.27"/><g data-visibility-modifier="IE_MANDATORY"><ellipse cx="646.13" cy="638.8193" fill="#000000" rx="3" ry="3" style="stroke:#000000;stroke-width:1;"/></g><text fill="#000000" font-family="Arial" font-size="14" lengthAdjust="spacing" textLength="224.082" x="655.13" y="642.4018">flight_key : VARCHAR(32) &#171;PK,FK&#187;</text><line style="stroke:#181818;stroke-width:1;" x1="636.13" x2="884.212" y1="649.3686" y2="649.3686"/><text fill="#000000" font-family="Arial" font-size="14" lengthAdjust="spacing" textLength="120.5996" x="641.13" y="666.5005">line_id : VARCHAR</text><text fill="#000000" font-family="Arial" font-size="14" lengthAdjust="spacing" textLength="125.2754" x="641.13" y="682.5991">load_id : VARCHAR</text></g><!--class fact_sales--><g class="entity" data-qualified-name="fact_sales" data-source-line="86" id="ent0009"><rect fill="#F1F1F1" height="225.085" rx="2.5" ry="2.5" style="stroke:#181818;stroke-width:0.5;" width="300.6816" x="919.83" y="528.88"/><ellipse cx="1034.4037" cy="544.88" fill="#ADD1B2" rx="11" ry="11" style="stroke:#181818;stroke-width:1;"/><path d="M1038.018,551.38 L1030.2983,551.38 L1030.2983,538.9869 L1038.018,538.9869 L1038.018,541.1451 L1032.747,541.1451 L1032.747,543.818 L1037.5199,543.818 L1037.5199,545.9762 L1032.747,545.9762 L1032.747,549.2218 L1038.018,549.2218 Z " fill="#000000"/><text fill="#000000" font-family="Arial" font-size="14" lengthAdjust="spacing" textLength="63.0342" x="1054.9037" y="549.9625">fact_sales</text><line style="stroke:#181818;stroke-width:0.5;" x1="920.83" x2="1219.5116" y1="560.88" y2="560.88"/><g data-visibility-modifier="IE_MANDATORY"><ellipse cx="930.83" cy="574.4293" fill="#000000" rx="3" ry="3" style="stroke:#000000;stroke-width:1;"/></g><text fill="#000000" font-family="Arial" font-size="14" lengthAdjust="spacing" textLength="274.6816" x="939.83" y="578.0118">sale_transaction_key : VARCHAR(32) &#171;PK&#187;</text><line style="stroke:#181818;stroke-width:1;" x1="920.83" x2="1219.5116" y1="584.9786" y2="584.9786"/><text fill="#000000" font-family="Arial" font-size="14" lengthAdjust="spacing" textLength="201.5166" x="925.83" y="602.1105">flight_key : VARCHAR(32) &#171;FK&#187;</text><text fill="#000000" font-family="Arial" font-size="14" lengthAdjust="spacing" textLength="248.9922" x="925.83" y="618.2091">sales_session_id : VARCHAR(32) &#171;FK&#187;</text><text fill="#000000" font-family="Arial" font-size="14" lengthAdjust="spacing" textLength="218.6406" x="925.83" y="634.3077">product_key : VARCHAR(32) &#171;FK&#187;</text><text fill="#000000" font-family="Arial" font-size="14" lengthAdjust="spacing" textLength="125.2754" x="925.83" y="650.4064">load_id : VARCHAR</text><text fill="#000000" font-family="Arial" font-size="14" lengthAdjust="spacing" textLength="85.5791" x="925.83" y="666.505">slip_id : UUID</text><text fill="#000000" font-family="Arial" font-size="14" lengthAdjust="spacing" textLength="147.0547" x="925.83" y="682.6036">sales_type : VARCHAR</text><text fill="#000000" font-family="Arial" font-size="14" lengthAdjust="spacing" textLength="133.8066" x="925.83" y="698.7023">currency : VARCHAR</text><text fill="#000000" font-family="Arial" font-size="14" lengthAdjust="spacing" textLength="156.3994" x="925.83" y="714.8009">sold_quantity : INTEGER</text><text fill="#000000" font-family="Arial" font-size="14" lengthAdjust="spacing" textLength="189.0752" x="925.83" y="730.8995">purchase_amount : NUMERIC</text><text fill="#000000" font-family="Arial" font-size="14" lengthAdjust="spacing" textLength="183.627" x="925.83" y="746.9982">discount_amount : NUMERIC</text></g><!--class fact_payments--><g class="entity" data-qualified-name="fact_payments" data-source-line="101" id="ent0010"><rect fill="#F1F1F1" height="192.8877" rx="2.5" ry="2.5" style="stroke:#181818;stroke-width:0.5;" width="328.6953" x="1595.82" y="544.97"/><ellipse cx="1710.3937" cy="560.97" fill="#ADD1B2" rx="11" ry="11" style="stroke:#181818;stroke-width:1;"/><path d="M1714.008,567.47 L1706.2883,567.47 L1706.2883,555.0769 L1714.008,555.0769 L1714.008,557.2351 L1708.737,557.2351 L1708.737,559.908 L1713.5099,559.908 L1713.5099,562.0662 L1708.737,562.0662 L1708.737,565.3118 L1714.008,565.3118 Z " fill="#000000"/><text fill="#000000" font-family="Arial" font-size="14" lengthAdjust="spacing" textLength="91.0479" x="1730.8937" y="566.0525">fact_payments</text><line style="stroke:#181818;stroke-width:0.5;" x1="1596.82" x2="1923.5153" y1="576.97" y2="576.97"/><g data-visibility-modifier="IE_MANDATORY"><ellipse cx="1606.82" cy="590.5193" fill="#000000" rx="3" ry="3" style="stroke:#000000;stroke-width:1;"/></g><text fill="#000000" font-family="Arial" font-size="14" lengthAdjust="spacing" textLength="302.6953" x="1615.82" y="594.1018">payment_transaction_key : VARCHAR(32) &#171;PK&#187;</text><line style="stroke:#181818;stroke-width:1;" x1="1596.82" x2="1923.5153" y1="601.0686" y2="601.0686"/><text fill="#000000" font-family="Arial" font-size="14" lengthAdjust="spacing" textLength="201.5166" x="1601.82" y="618.2005">flight_key : VARCHAR(32) &#171;FK&#187;</text><text fill="#000000" font-family="Arial" font-size="14" lengthAdjust="spacing" textLength="248.9922" x="1601.82" y="634.2991">sales_session_id : VARCHAR(32) &#171;FK&#187;</text><text fill="#000000" font-family="Arial" font-size="14" lengthAdjust="spacing" textLength="241.9854" x="1601.82" y="650.3977">card_number_prefix : VARCHAR &#171;FK&#187;</text><text fill="#000000" font-family="Arial" font-size="14" lengthAdjust="spacing" textLength="125.2754" x="1601.82" y="666.4964">load_id : VARCHAR</text><text fill="#000000" font-family="Arial" font-size="14" lengthAdjust="spacing" textLength="85.5791" x="1601.82" y="682.595">slip_id : UUID</text><text fill="#000000" font-family="Arial" font-size="14" lengthAdjust="spacing" textLength="147.0547" x="1601.82" y="698.6936">sales_type : VARCHAR</text><text fill="#000000" font-family="Arial" font-size="14" lengthAdjust="spacing" textLength="168.0684" x="1601.82" y="714.7923">payment_type : VARCHAR</text><text fill="#000000" font-family="Arial" font-size="14" lengthAdjust="spacing" textLength="227.2061" x="1601.82" y="730.8909">purchase_amount_main : NUMERIC</text></g><!--class fact_pax--><g class="entity" data-qualified-name="fact_pax" data-source-line="114" id="ent0011"><rect fill="#F1F1F1" height="112.3945" rx="2.5" ry="2.5" style="stroke:#181818;stroke-width:0.5;" width="306.1436" x="1255.1" y="585.22"/><ellipse cx="1377.4599" cy="601.22" fill="#ADD1B2" rx="11" ry="11" style="stroke:#181818;stroke-width:1;"/><path d="M1381.0741,607.72 L1373.3544,607.72 L1373.3544,595.3269 L1381.0741,595.3269 L1381.0741,597.4851 L1375.8031,597.4851 L1375.8031,600.158 L1380.5761,600.158 L1380.5761,602.3162 L1375.8031,602.3162 L1375.8031,605.5618 L1381.0741,605.5618 Z " fill="#000000"/><text fill="#000000" font-family="Arial" font-size="14" lengthAdjust="spacing" textLength="52.9238" x="1397.9599" y="606.3025">fact_pax</text><line style="stroke:#181818;stroke-width:0.5;" x1="1256.1" x2="1560.2436" y1="617.22" y2="617.22"/><g data-visibility-modifier="IE_MANDATORY"><ellipse cx="1266.1" cy="630.7693" fill="#000000" rx="3" ry="3" style="stroke:#000000;stroke-width:1;"/></g><text fill="#000000" font-family="Arial" font-size="14" lengthAdjust="spacing" textLength="280.1436" x="1275.1" y="634.3518">passenger_count_key : VARCHAR(32) &#171;PK&#187;</text><line style="stroke:#181818;stroke-width:1;" x1="1256.1" x2="1560.2436" y1="641.3186" y2="641.3186"/><text fill="#000000" font-family="Arial" font-size="14" lengthAdjust="spacing" textLength="201.5166" x="1261.1" y="658.4505">flight_key : VARCHAR(32) &#171;FK&#187;</text><text fill="#000000" font-family="Arial" font-size="14" lengthAdjust="spacing" textLength="154.041" x="1261.1" y="674.5491">travel_class : VARCHAR</text><text fill="#000000" font-family="Arial" font-size="14" lengthAdjust="spacing" textLength="220.9922" x="1261.1" y="690.6477">number_of_passengers : INTEGER</text></g><!--class fact_wastage--><g class="entity" data-qualified-name="fact_wastage" data-source-line="122" id="ent0012"><rect fill="#F1F1F1" height="176.7891" rx="2.5" ry="2.5" style="stroke:#181818;stroke-width:0.5;" width="298.3438" x="7" y="553.02"/><ellipse cx="110.6738" cy="569.02" fill="#ADD1B2" rx="11" ry="11" style="stroke:#181818;stroke-width:1;"/><path d="M114.2881,575.52 L106.5684,575.52 L106.5684,563.1269 L114.2881,563.1269 L114.2881,565.2851 L109.0171,565.2851 L109.0171,567.958 L113.79,567.958 L113.79,570.1162 L109.0171,570.1162 L109.0171,573.3618 L114.2881,573.3618 Z " fill="#000000"/><text fill="#000000" font-family="Arial" font-size="14" lengthAdjust="spacing" textLength="82.4961" x="131.1738" y="574.1025">fact_wastage</text><line style="stroke:#181818;stroke-width:0.5;" x1="8" x2="304.3438" y1="585.02" y2="585.02"/><g data-visibility-modifier="IE_MANDATORY"><ellipse cx="18" cy="598.5693" fill="#000000" rx="3" ry="3" style="stroke:#000000;stroke-width:1;"/></g><text fill="#000000" font-family="Arial" font-size="14" lengthAdjust="spacing" textLength="272.3438" x="27" y="602.1518">wastage_record_key : VARCHAR(32) &#171;PK&#187;</text><line style="stroke:#181818;stroke-width:1;" x1="8" x2="304.3438" y1="609.1186" y2="609.1186"/><text fill="#000000" font-family="Arial" font-size="14" lengthAdjust="spacing" textLength="269.2334" x="13" y="626.2505">flight_key_with_date : VARCHAR(32) &#171;FK&#187;</text><text fill="#000000" font-family="Arial" font-size="14" lengthAdjust="spacing" textLength="218.6406" x="13" y="642.3491">product_key : VARCHAR(32) &#171;FK&#187;</text><text fill="#000000" font-family="Arial" font-size="14" lengthAdjust="spacing" textLength="125.2754" x="13" y="658.4477">load_id : VARCHAR</text><text fill="#000000" font-family="Arial" font-size="14" lengthAdjust="spacing" textLength="157.1855" x="13" y="674.5464">load_quantity : INTEGER</text><text fill="#000000" font-family="Arial" font-size="14" lengthAdjust="spacing" textLength="156.3994" x="13" y="690.645">sold_quantity : INTEGER</text><text fill="#000000" font-family="Arial" font-size="14" lengthAdjust="spacing" textLength="182.8613" x="13" y="706.7436">wastage_quantity : INTEGER</text><text fill="#000000" font-family="Arial" font-size="14" lengthAdjust="spacing" textLength="221.7715" x="13" y="722.8423">fresh_wastage_quantity : INTEGER</text></g><!--class fact_items_load--><g class="entity" data-qualified-name="fact_items_load" data-source-line="134" id="ent0013"><rect fill="#F1F1F1" height="144.5918" rx="2.5" ry="2.5" style="stroke:#181818;stroke-width:0.5;" width="259.4336" x="340.46" y="569.12"/><ellipse cx="416.8995" cy="585.12" fill="#ADD1B2" rx="11" ry="11" style="stroke:#181818;stroke-width:1;"/><path d="M420.5137,591.62 L412.794,591.62 L412.794,579.2269 L420.5137,579.2269 L420.5137,581.3851 L415.2427,581.3851 L415.2427,584.058 L420.0157,584.058 L420.0157,586.2162 L415.2427,586.2162 L415.2427,589.4618 L420.5137,589.4618 Z " fill="#000000"/><text fill="#000000" font-family="Arial" font-size="14" lengthAdjust="spacing" textLength="98.0547" x="437.3995" y="590.2025">fact_items_load</text><line style="stroke:#181818;stroke-width:0.5;" x1="341.46" x2="598.8936" y1="601.12" y2="601.12"/><g data-visibility-modifier="IE_MANDATORY"><ellipse cx="351.46" cy="614.6693" fill="#000000" rx="3" ry="3" style="stroke:#000000;stroke-width:1;"/></g><text fill="#000000" font-family="Arial" font-size="14" lengthAdjust="spacing" textLength="233.4336" x="360.46" y="618.2518">item_load_key : VARCHAR(32) &#171;PK&#187;</text><line style="stroke:#181818;stroke-width:1;" x1="341.46" x2="598.8936" y1="625.2186" y2="625.2186"/><text fill="#000000" font-family="Arial" font-size="14" lengthAdjust="spacing" textLength="201.5166" x="346.46" y="642.3505">flight_key : VARCHAR(32) &#171;FK&#187;</text><text fill="#000000" font-family="Arial" font-size="14" lengthAdjust="spacing" textLength="218.6406" x="346.46" y="658.4491">product_key : VARCHAR(32) &#171;FK&#187;</text><text fill="#000000" font-family="Arial" font-size="14" lengthAdjust="spacing" textLength="125.2754" x="346.46" y="674.5477">load_id : VARCHAR</text><text fill="#000000" font-family="Arial" font-size="14" lengthAdjust="spacing" textLength="207.0059" x="346.46" y="690.6464">total_loaded_quantity : INTEGER</text><text fill="#000000" font-family="Arial" font-size="14" lengthAdjust="spacing" textLength="170.3994" x="346.46" y="706.745">potential_error : VARCHAR</text></g><!--link dim_date to dim_flights--><g class="link" data-entity-1="ent0002" data-entity-2="ent0004" data-link-type="crowfoot" data-source-line="145" id="lnk14"><path codeLine="145" d="M840.88,240.48 C840.88,260.31 840.88,254.7 840.88,273.75" fill="none" id="dim_date-dim_flights" style="stroke:#181818;stroke-width:1;"/><line style="stroke:#181818;stroke-width:1;" x1="836.88" x2="844.88" y1="236.48" y2="236.48"/><line style="stroke:#181818;stroke-width:1;" x1="836.88" x2="844.88" y1="239.48" y2="239.48"/><line style="stroke:#181818;stroke-width:1;" x1="840.88" x2="840.88" y1="240.48" y2="232.48"/><line style="stroke:#181818;stroke-width:1;" x1="840.88" x2="846.88" y1="283.75" y2="291.75"/><line style="stroke:#181818;stroke-width:1;" x1="840.88" x2="834.88" y1="283.75" y2="291.75"/><line style="stroke:#181818;stroke-width:1;" x1="840.88" x2="840.88" y1="283.75" y2="291.75"/><ellipse cx="840.88" cy="277.75" fill="none" rx="4" ry="4" style="stroke:#181818;stroke-width:1;"/></g><!--link dim_time to dim_flights--><g class="link" data-entity-1="ent0003" data-entity-2="ent0004" data-link-type="crowfoot" data-source-line="146" id="lnk15"><path codeLine="146" d="M999.16,192.04 C999.16,224.49 999.16,238.33 999.16,273.62" fill="none" id="dim_time-dim_flights" style="stroke:#181818;stroke-width:1;"/><line style="stroke:#181818;stroke-width:1;" x1="995.16" x2="1003.16" y1="188.04" y2="188.04"/><line style="stroke:#181818;stroke-width:1;" x1="995.16" x2="1003.16" y1="191.04" y2="191.04"/><line style="stroke:#181818;stroke-width:1;" x1="999.16" x2="999.16" y1="192.04" y2="184.04"/><line style="stroke:#181818;stroke-width:1;" x1="999.16" x2="1005.16" y1="283.62" y2="291.62"/><line style="stroke:#181818;stroke-width:1;" x1="999.16" x2="993.16" y1="283.62" y2="291.62"/><line style="stroke:#181818;stroke-width:1;" x1="999.16" x2="999.16" y1="283.62" y2="291.62"/><ellipse cx="999.16" cy="277.62" fill="none" rx="4" ry="4" style="stroke:#181818;stroke-width:1;"/></g><!--link dim_flights to fact_sales--><g class="link" data-entity-1="ent0004" data-entity-2="ent0009" data-link-type="crowfoot" data-source-line="149" id="lnk16"><path codeLine="149" d="M990.51,477.19 C990.51,496.25 990.51,490.63 990.51,510.47" fill="none" id="dim_flights-fact_sales" style="stroke:#181818;stroke-width:1;"/><line style="stroke:#181818;stroke-width:1;" x1="986.51" x2="994.51" y1="473.19" y2="473.19"/><line style="stroke:#181818;stroke-width:1;" x1="986.51" x2="994.51" y1="476.19" y2="476.19"/><line style="stroke:#181818;stroke-width:1;" x1="990.51" x2="990.51" y1="477.19" y2="469.19"/><line style="stroke:#181818;stroke-width:1;" x1="990.51" x2="996.51" y1="520.47" y2="528.47"/><line style="stroke:#181818;stroke-width:1;" x1="990.51" x2="984.51" y1="520.47" y2="528.47"/><line style="stroke:#181818;stroke-width:1;" x1="990.51" x2="990.51" y1="520.47" y2="528.47"/><ellipse cx="990.51" cy="514.47" fill="none" rx="4" ry="4" style="stroke:#181818;stroke-width:1;"/></g><!--link dim_flights to fact_payments--><g class="link" data-entity-1="ent0004" data-entity-2="ent0010" data-link-type="crowfoot" data-source-line="150" id="lnk17"><path codeLine="150" d="M1069.41,463.96 C1270.12,463.96 1605.81,463.96 1605.81,463.96 C1605.81,463.96 1605.81,485.11 1605.81,526.64" fill="none" id="dim_flights-fact_payments" style="stroke:#181818;stroke-width:1;"/><line style="stroke:#181818;stroke-width:1;" x1="1065.41" x2="1065.41" y1="467.96" y2="459.96"/><line style="stroke:#181818;stroke-width:1;" x1="1068.41" x2="1068.41" y1="467.96" y2="459.96"/><line style="stroke:#181818;stroke-width:1;" x1="1069.41" x2="1061.41" y1="463.96" y2="463.96"/><line style="stroke:#181818;stroke-width:1;" x1="1605.81" x2="1611.81" y1="536.64" y2="544.64"/><line style="stroke:#181818;stroke-width:1;" x1="1605.81" x2="1599.81" y1="536.64" y2="544.64"/><line style="stroke:#181818;stroke-width:1;" x1="1605.81" x2="1605.81" y1="536.64" y2="544.64"/><ellipse cx="1605.81" cy="530.64" fill="none" rx="4" ry="4" style="stroke:#181818;stroke-width:1;"/></g><!--link dim_flights to fact_pax--><g class="link" data-entity-1="ent0004" data-entity-2="ent0011" data-link-type="crowfoot" data-source-line="151" id="lnk18"><path codeLine="151" d="M1069.44,465.96 C1200.87,465.96 1368.58,465.96 1368.58,465.96 C1368.58,465.96 1368.58,515.64 1368.58,566.94" fill="none" id="dim_flights-fact_pax" style="stroke:#181818;stroke-width:1;"/><line style="stroke:#181818;stroke-width:1;" x1="1065.44" x2="1065.44" y1="469.96" y2="461.96"/><line style="stroke:#181818;stroke-width:1;" x1="1068.44" x2="1068.44" y1="469.96" y2="461.96"/><line style="stroke:#181818;stroke-width:1;" x1="1069.44" x2="1061.44" y1="465.96" y2="465.96"/><line style="stroke:#181818;stroke-width:1;" x1="1368.58" x2="1374.58" y1="576.94" y2="584.94"/><line style="stroke:#181818;stroke-width:1;" x1="1368.58" x2="1362.58" y1="576.94" y2="584.94"/><line style="stroke:#181818;stroke-width:1;" x1="1368.58" x2="1368.58" y1="576.94" y2="584.94"/><ellipse cx="1368.58" cy="570.94" fill="none" rx="4" ry="4" style="stroke:#181818;stroke-width:1;"/></g><!--link dim_flights to fact_wastage--><g class="link" data-entity-1="ent0004" data-entity-2="ent0012" data-link-type="crowfoot" data-source-line="152" id="lnk19"><path codeLine="152" d="M814.51,477.26 C814.51,524.1 814.51,563.96 814.51,563.96 C814.51,563.96 517.8,563.96 323.56,563.96" fill="none" id="dim_flights-fact_wastage" style="stroke:#181818;stroke-width:1;"/><line style="stroke:#181818;stroke-width:1;" x1="810.51" x2="818.51" y1="473.26" y2="473.26"/><line style="stroke:#181818;stroke-width:1;" x1="810.51" x2="818.51" y1="476.26" y2="476.26"/><line style="stroke:#181818;stroke-width:1;" x1="814.51" x2="814.51" y1="477.26" y2="469.26"/><line style="stroke:#181818;stroke-width:1;" x1="313.56" x2="305.56" y1="563.96" y2="569.96"/><line style="stroke:#181818;stroke-width:1;" x1="313.56" x2="305.56" y1="563.96" y2="557.96"/><line style="stroke:#181818;stroke-width:1;" x1="313.56" x2="305.56" y1="563.96" y2="563.96"/><ellipse cx="319.56" cy="563.96" fill="none" rx="4" ry="4" style="stroke:#181818;stroke-width:1;"/></g><!--link dim_flights to fact_items_load--><g class="link" data-entity-1="ent0004" data-entity-2="ent0013" data-link-type="crowfoot" data-source-line="153" id="lnk20"><path codeLine="153" d="M771.1,464.96 C683.84,464.96 596.39,464.96 596.39,464.96 C596.39,464.96 596.39,502.02 596.39,550.63" fill="none" id="dim_flights-fact_items_load" style="stroke:#181818;stroke-width:1;"/><line style="stroke:#181818;stroke-width:1;" x1="775.1" x2="775.1" y1="460.96" y2="468.96"/><line style="stroke:#181818;stroke-width:1;" x1="772.1" x2="772.1" y1="460.96" y2="468.96"/><line style="stroke:#181818;stroke-width:1;" x1="771.1" x2="779.1" y1="464.96" y2="464.96"/><line style="stroke:#181818;stroke-width:1;" x1="596.39" x2="602.39" y1="560.63" y2="568.63"/><line style="stroke:#181818;stroke-width:1;" x1="596.39" x2="590.39" y1="560.63" y2="568.63"/><line style="stroke:#181818;stroke-width:1;" x1="596.39" x2="596.39" y1="560.63" y2="568.63"/><ellipse cx="596.39" cy="554.63" fill="none" rx="4" ry="4" style="stroke:#181818;stroke-width:1;"/></g><!--link dim_flights to bridge_flight_load--><g class="link" data-entity-1="ent0004" data-entity-2="ent0008" data-link-type="association" data-source-line="154" id="lnk21"><path codeLine="154" d="M849.86,477.19 C849.86,518.55 849.86,550.19 849.86,584.86" fill="none" id="dim_flights-bridge_flight_load" style="stroke:#181818;stroke-width:1;"/><line style="stroke:#181818;stroke-width:1;" x1="845.86" x2="853.86" y1="473.19" y2="473.19"/><line style="stroke:#181818;stroke-width:1;" x1="845.86" x2="853.86" y1="476.19" y2="476.19"/><line style="stroke:#181818;stroke-width:1;" x1="849.86" x2="849.86" y1="477.19" y2="469.19"/><line style="stroke:#181818;stroke-width:1;" x1="853.86" x2="845.86" y1="588.86" y2="588.86"/><line style="stroke:#181818;stroke-width:1;" x1="853.86" x2="845.86" y1="585.86" y2="585.86"/><line style="stroke:#181818;stroke-width:1;" x1="849.86" x2="849.86" y1="584.86" y2="592.86"/></g><!--link dim_sessions to fact_sales--><g class="link" data-entity-1="ent0006" data-entity-2="ent0009" data-link-type="crowfoot" data-source-line="156" id="lnk22"><path codeLine="156" d="M1213.4,428.97 C1213.4,457.88 1213.4,472.3 1213.4,510.63" fill="none" id="dim_sessions-fact_sales" style="stroke:#181818;stroke-width:1;"/><line style="stroke:#181818;stroke-width:1;" x1="1209.4" x2="1217.4" y1="424.97" y2="424.97"/><line style="stroke:#181818;stroke-width:1;" x1="1209.4" x2="1217.4" y1="427.97" y2="427.97"/><line style="stroke:#181818;stroke-width:1;" x1="1213.4" x2="1213.4" y1="428.97" y2="420.97"/><line style="stroke:#181818;stroke-width:1;" x1="1213.4" x2="1219.4" y1="520.63" y2="528.63"/><line style="stroke:#181818;stroke-width:1;" x1="1213.4" x2="1207.4" y1="520.63" y2="528.63"/><line style="stroke:#181818;stroke-width:1;" x1="1213.4" x2="1213.4" y1="520.63" y2="528.63"/><ellipse cx="1213.4" cy="514.63" fill="none" rx="4" ry="4" style="stroke:#181818;stroke-width:1;"/></g><!--link dim_sessions to fact_payments--><g class="link" data-entity-1="ent0006" data-entity-2="ent0010" data-link-type="crowfoot" data-source-line="157" id="lnk23"><path codeLine="157" d="M1490.37,380.96 C1557.47,380.96 1615.8,380.96 1615.8,380.96 C1615.8,380.96 1615.8,452.68 1615.8,526.8" fill="none" id="dim_sessions-fact_payments" style="stroke:#181818;stroke-width:1;"/><line style="stroke:#181818;stroke-width:1;" x1="1486.37" x2="1486.37" y1="384.96" y2="376.96"/><line style="stroke:#181818;stroke-width:1;" x1="1489.37" x2="1489.37" y1="384.96" y2="376.96"/><line style="stroke:#181818;stroke-width:1;" x1="1490.37" x2="1482.37" y1="380.96" y2="380.96"/><line style="stroke:#181818;stroke-width:1;" x1="1615.8" x2="1621.8" y1="536.8" y2="544.8"/><line style="stroke:#181818;stroke-width:1;" x1="1615.8" x2="1609.8" y1="536.8" y2="544.8"/><line style="stroke:#181818;stroke-width:1;" x1="1615.8" x2="1615.8" y1="536.8" y2="544.8"/><ellipse cx="1615.8" cy="530.8" fill="none" rx="4" ry="4" style="stroke:#181818;stroke-width:1;"/></g><!--link dim_products to fact_sales--><g class="link" data-entity-1="ent0005" data-entity-2="ent0009" data-link-type="crowfoot" data-source-line="159" id="lnk24"><path codeLine="159" d="M531.53,469.19 C531.53,509.15 531.53,540.96 531.53,540.96 C531.53,540.96 742.06,540.96 901.41,540.96" fill="none" id="dim_products-fact_sales" style="stroke:#181818;stroke-width:1;"/><line style="stroke:#181818;stroke-width:1;" x1="527.53" x2="535.53" y1="465.19" y2="465.19"/><line style="stroke:#181818;stroke-width:1;" x1="527.53" x2="535.53" y1="468.19" y2="468.19"/><line style="stroke:#181818;stroke-width:1;" x1="531.53" x2="531.53" y1="469.19" y2="461.19"/><line style="stroke:#181818;stroke-width:1;" x1="911.41" x2="919.41" y1="540.96" y2="534.96"/><line style="stroke:#181818;stroke-width:1;" x1="911.41" x2="919.41" y1="540.96" y2="546.96"/><line style="stroke:#181818;stroke-width:1;" x1="911.41" x2="919.41" y1="540.96" y2="540.96"/><ellipse cx="905.41" cy="540.96" fill="none" rx="4" ry="4" style="stroke:#181818;stroke-width:1;"/></g><!--link dim_products to fact_wastage--><g class="link" data-entity-1="ent0005" data-entity-2="ent0012" data-link-type="crowfoot" data-source-line="160" id="lnk25"><path codeLine="160" d="M408.82,469.17 C408.82,516.05 408.82,557.96 408.82,557.96 C408.82,557.96 378.24,557.96 323.69,557.96" fill="none" id="dim_products-fact_wastage" style="stroke:#181818;stroke-width:1;"/><line style="stroke:#181818;stroke-width:1;" x1="404.82" x2="412.82" y1="465.17" y2="465.17"/><line style="stroke:#181818;stroke-width:1;" x1="404.82" x2="412.82" y1="468.17" y2="468.17"/><line style="stroke:#181818;stroke-width:1;" x1="408.82" x2="408.82" y1="469.17" y2="461.17"/><line style="stroke:#181818;stroke-width:1;" x1="313.69" x2="305.69" y1="557.96" y2="563.96"/><line style="stroke:#181818;stroke-width:1;" x1="313.69" x2="305.69" y1="557.96" y2="551.96"/><line style="stroke:#181818;stroke-width:1;" x1="313.69" x2="305.69" y1="557.96" y2="557.96"/><ellipse cx="319.69" cy="557.96" fill="none" rx="4" ry="4" style="stroke:#181818;stroke-width:1;"/></g><!--link dim_products to fact_items_load--><g class="link" data-entity-1="ent0005" data-entity-2="ent0013" data-link-type="crowfoot" data-source-line="161" id="lnk26"><path codeLine="161" d="M470.17,469.26 C470.17,503.68 470.17,517.53 470.17,550.99" fill="none" id="dim_products-fact_items_load" style="stroke:#181818;stroke-width:1;"/><line style="stroke:#181818;stroke-width:1;" x1="466.17" x2="474.17" y1="465.26" y2="465.26"/><line style="stroke:#181818;stroke-width:1;" x1="466.17" x2="474.17" y1="468.26" y2="468.26"/><line style="stroke:#181818;stroke-width:1;" x1="470.17" x2="470.17" y1="469.26" y2="461.26"/><line style="stroke:#181818;stroke-width:1;" x1="470.17" x2="476.17" y1="560.99" y2="568.99"/><line style="stroke:#181818;stroke-width:1;" x1="470.17" x2="464.17" y1="560.99" y2="568.99"/><line style="stroke:#181818;stroke-width:1;" x1="470.17" x2="470.17" y1="560.99" y2="568.99"/><ellipse cx="470.17" cy="554.99" fill="none" rx="4" ry="4" style="stroke:#181818;stroke-width:1;"/></g><!--link dim_card to fact_payments--><g class="link" data-entity-1="ent0007" data-entity-2="ent0010" data-link-type="crowfoot" data-source-line="163" id="lnk27"><path codeLine="163" d="M1760.17,469.26 C1760.17,495.6 1760.17,499.12 1760.17,526.52" fill="none" id="dim_card-fact_payments" style="stroke:#181818;stroke-width:1;"/><line style="stroke:#181818;stroke-width:1;" x1="1756.17" x2="1764.17" y1="465.26" y2="465.26"/><line style="stroke:#181818;stroke-width:1;" x1="1756.17" x2="1764.17" y1="468.26" y2="468.26"/><line style="stroke:#181818;stroke-width:1;" x1="1760.17" x2="1760.17" y1="469.26" y2="461.26"/><line style="stroke:#181818;stroke-width:1;" x1="1760.17" x2="1766.17" y1="536.52" y2="544.52"/><line style="stroke:#181818;stroke-width:1;" x1="1760.17" x2="1754.17" y1="536.52" y2="544.52"/><line style="stroke:#181818;stroke-width:1;" x1="1760.17" x2="1760.17" y1="536.52" y2="544.52"/><ellipse cx="1760.17" cy="530.52" fill="none" rx="4" ry="4" style="stroke:#181818;stroke-width:1;"/></g><?plantuml-src nLR9Rjim4BthAuZsq0NrfJar208uYTqQRPp2S7ebQ6ba4PP8bQJg677_lIIjXQ8aEqKDr3a4cZUSvSr2oWrbEH4aGoiIRjQ25oowvIaNQ9jG1O6iyGXYKgHgofcQampGM52IEhXCICItbArHJ5Bfdamf0xNB0N6X4Xuu2315rGuz1qZ_Rhm0Nay_cRy3naK4efHVs5_mEmZUe3kQ0PEKCncKnbv5DCCHKV2gjFiUcI-yWHswHBFvSl9via1NLz-_NbzRV3Io_uoILhWRBoVsUmT4D0UiADEv9tqop0mZb-Z7U77xPRmexUqyrPy54Gfyerk03Uug6x6Mzbcc4XiKMAI1cuU7RvFnt08IYEJCqTOKkQmeJLR3YlawoKh22pzWxPxHTQ8yvoRO70JbaHSkoN2U3GSLfyQORE8w2Ch8oaDlBpw-wuckKSLRgijGrh1zQ5mTAhLPaQri5TmWkQ1holmIWbIK4KLv1pauQdYRLauCOPZ7E0BTugeG0sg6V8qiP_SJdv1SyAW8NKPAoOieqKEROUhNG2gY2ka9Gvt4cejTjxrYpltUidRj5BUrSq538vi_tayMiri_6GdIJcUJZ2Gfo4hUYdGe8wdvZCqImHcFm8dBynKI4JL-p5TPQqqfnFIfyTJZHUgwXM1jzALfvIj1cC-ijWm2sAcZ0rnRZ4fPT1ho8CIXteUgTSoklHj1epMW9LbfCciILbPQJXHEEObUE5KVfXuRbkrE5ncBRQaDPafqjzP1nFeBsoAtQuwLPazgq9JzxuQxerg7UxAPQirZCrGhTHEqJbAQ7wIFZxCxnszViGjXki6li-HfXFN-Ft3KtgUvRho4IC0aCyLsPibk6Yfj3tHHf_ijvpdPwRkmjJSEal_C_8b1F2FvTRuzK9jad16xxOUvV79fb1BOkfh6ir6eo_8BKXocshuNRacNlaTgvz9f6p_SBT4BVktSxQK02mZro-byT-avnibA1sRXs9nKEGt0iG2Pu2DAFcdcHfFUbhItd0tmN4N-1w8KLoIrqS3myk3A9ANrG0Wk_DLSFu_H0bBxa949pMLGlP7HVZyQyMVaFCI2wgNOXxLCAcvNVu_fKhsoq5m9WsYrl8ueF0rYPT47yQRI7PNz7dLlpI1mdou3MVJ2THg1-v8RiD0BkxdqAZZ91DMhfp-6Fm00?></g></svg>